<?xml version="1.0" encoding="utf-8"?>
<svg height="5" style="background-color:white" viewBox="0 0 5 5" width="5" xmlns="http://www.w3.org/2000/svg" xmlns:xlink="http://www.w3.org/1999/xlink">
 <path d="M 2.3125 1.460938 C 0.652344 2.203125 1.179688 4.683594 3 4.683594 C 4.820312 4.683594 5.347656 2.203125 3.6875 1.460938 C 4.914062 2.65625 3.507812 3.855469 3.230469 3 C 3.109375 2.542969 3.335938 2.101562 3.613281 2.046875 L 3.4375 1.835938 C 3.339844 1.878906 3.246094 1.96875 3.15625 2.113281 C 3.15625 1.90625 3.207031 1.761719 3.304688 1.679688 L 3 1.316406 L 2.695312 1.679688 C 2.792969 1.761719 2.84375 1.90625 2.84375 2.113281 C 2.753906 1.96875 2.660156 1.878906 2.5625 1.835938 L 2.386719 2.046875 C 2.664062 2.101562 2.890625 2.542969 2.769531 3 C 2.492188 3.855469 1.085938 2.65625 2.3125 1.460938 Z M 2.3125 1.460938 " fill="rgb(0%, 0%, 0%)" fill-opacity="1" fill-rule="evenodd"/>
</svg>