<?xml version="1.0" encoding="utf-8"?>
<svg height="6" style="background-color:white" viewBox="0 0 6 6" width="6" xmlns="http://www.w3.org/2000/svg" xmlns:xlink="http://www.w3.org/1999/xlink">
 <path d="M 1.5 3.898438 L 1.5 2.101562 C 1.5 2.101562 1.5 1.5 2.101562 1.5 L 3.898438 1.5 C 3.898438 1.5 4.5 1.5 4.5 2.101562 L 4.5 3.898438 C 4.5 3.898438 4.5 4.5 3.898438 4.5 L 2.101562 4.5 C 2.101562 4.5 1.5 4.5 1.5 3.898438 Z M 1.5 3.898438 " fill="rgb(100%, 100%, 100%)" fill-opacity="1" fill-rule="evenodd"/>
 <path d="M 1.199219 3.898438 L 1.199219 2.101562 C 1.199219 2.101562 1.199219 1.199219 2.101562 1.199219 L 3.898438 1.199219 C 3.898438 1.199219 4.800781 1.199219 4.800781 2.101562 L 4.800781 3.898438 C 4.800781 3.898438 4.800781 4.800781 3.898438 4.800781 L 2.101562 4.800781 C 2.101562 4.800781 1.199219 4.800781 1.199219 3.898438 Z M 1.800781 3.898438 L 1.800781 2.101562 C 1.800781 2.101562 1.800781 1.800781 2.101562 1.800781 L 3.898438 1.800781 C 3.898438 1.800781 4.199219 1.800781 4.199219 2.101562 L 4.199219 3.898438 C 4.199219 3.898438 4.199219 4.199219 3.898438 4.199219 L 2.101562 4.199219 C 2.101562 4.199219 1.800781 4.199219 1.800781 3.898438 Z M 1.800781 3.898438 " fill="rgb(0%, 0%, 0%)" fill-opacity="1" fill-rule="evenodd"/>
</svg>