<?xml version="1.0" encoding="utf-8"?>
<svg height="16" style="background-color:white" viewBox="0 0 23 16" width="23" xmlns="http://www.w3.org/2000/svg" xmlns:xlink="http://www.w3.org/1999/xlink">
 <path d="M 51.511719 780.007812 C 48.929688 780.121094 46.8125 777.988281 46.9375 775.410156 C 45.914062 774.988281 44.734375 775.257812 43.996094 776.082031 C 45.734375 779.808594 45.574219 784.140625 43.566406 787.730469 C 45.226562 787.171875 47.007812 787.09375 48.710938 787.507812 " fill="rgb(89.1%, 93.3%, 41.3%)" fill-opacity="1" fill-rule="evenodd" stroke="rgb(57.4%, 59.6%, 8.1%)" stroke-linecap="butt" stroke-linejoin="round" stroke-miterlimit="10" stroke-opacity="1" stroke-width="0.4" transform="matrix(1, 0, 0, -1, -42, 790)"/>
 <path d="M 59.023438 780.949219 C 59.460938 782.398438 59.460938 785.601562 59.023438 787.050781 C 59.804688 786.898438 59.804688 781.101562 59.023438 780.949219 Z M 59.023438 780.949219 " fill="rgb(89.1%, 93.3%, 41.3%)" fill-opacity="1" fill-rule="evenodd" stroke="rgb(57.4%, 59.6%, 8.1%)" stroke-linecap="butt" stroke-linejoin="round" stroke-miterlimit="10" stroke-opacity="1" stroke-width="0.4" transform="matrix(1, 0, 0, -1, -42, 790)"/>
 <path d="M 57.03125 780.003906 C 57.601562 781.902344 57.601562 786.097656 57.03125 787.996094 C 58.054688 787.796875 58.054688 780.203125 57.03125 780.003906 Z M 57.03125 780.003906 " fill="rgb(89.1%, 93.3%, 41.3%)" fill-opacity="1" fill-rule="evenodd" stroke="rgb(57.4%, 59.6%, 8.1%)" stroke-linecap="butt" stroke-linejoin="round" stroke-miterlimit="10" stroke-opacity="1" stroke-width="0.4" transform="matrix(1, 0, 0, -1, -42, 790)"/>
 <path d="M 55.003906 779.527344 C 55.640625 781.652344 55.640625 786.34375 55.003906 788.46875 C 56.148438 788.242188 56.148438 779.753906 55.003906 779.527344 Z M 55.003906 779.527344 " fill="rgb(89.1%, 93.3%, 41.3%)" fill-opacity="1" fill-rule="evenodd" stroke="rgb(57.4%, 59.6%, 8.1%)" stroke-linecap="butt" stroke-linejoin="round" stroke-miterlimit="10" stroke-opacity="1" stroke-width="0.4" transform="matrix(1, 0, 0, -1, -42, 790)"/>
 <path d="M 52 784 L 64 784 " fill="none" stroke="rgb(60.2%, 4.1%, 41.8%)" stroke-linecap="butt" stroke-linejoin="round" stroke-miterlimit="10" stroke-opacity="1" stroke-width="0.4" transform="matrix(1, 0, 0, -1, -42, 790)"/>
 <path d="M 60 784 C 60 786.210938 56.417969 788 52 788 C 47.582031 788 44 786.210938 44 784 C 44 781.789062 47.582031 780 52 780 C 56.417969 780 60 781.789062 60 784 Z M 60 784 " fill="rgb(97.1%, 12.8%, 68.7%)" fill-opacity="1" fill-rule="evenodd" stroke="rgb(60.2%, 4.1%, 41.8%)" stroke-linecap="butt" stroke-linejoin="round" stroke-miterlimit="10" stroke-opacity="1" stroke-width="0.4" transform="matrix(1, 0, 0, -1, -42, 790)"/>
 <path d="M 65 784 C 65 785.332031 63 785.332031 63 784 C 63 782.667969 65 782.667969 65 784 Z M 65 784 " fill="rgb(97.1%, 12.8%, 68.7%)" fill-opacity="1" fill-rule="evenodd" stroke="rgb(60.2%, 4.1%, 41.8%)" stroke-linecap="butt" stroke-linejoin="round" stroke-miterlimit="10" stroke-opacity="1" stroke-width="0.4" transform="matrix(1, 0, 0, -1, -42, 790)"/>
 <path d="M 58.851562 787.472656 L 59.195312 786.894531 C 58.800781 787.5625 58.390625 786.089844 58.390625 784 C 58.390625 781.910156 58.800781 780.4375 59.195312 781.105469 L 58.851562 780.527344 C 58.378906 779.722656 57.882812 781.492188 57.882812 784 C 57.882812 786.507812 58.378906 788.277344 58.851562 787.472656 Z M 58.851562 787.472656 " fill="rgb(89.1%, 93.3%, 41.3%)" fill-opacity="1" fill-rule="evenodd" stroke="rgb(57.4%, 59.6%, 8.1%)" stroke-linecap="butt" stroke-linejoin="round" stroke-miterlimit="10" stroke-opacity="1" stroke-width="0.4" transform="matrix(1, 0, 0, -1, -42, 790)"/>
 <path d="M 56.808594 788.546875 L 57.257812 787.789062 C 56.738281 788.664062 56.199219 786.738281 56.199219 784 C 56.199219 781.261719 56.738281 779.335938 57.257812 780.210938 L 56.808594 779.453125 C 56.183594 778.402344 55.539062 780.714844 55.539062 784 C 55.539062 787.285156 56.183594 789.597656 56.808594 788.546875 Z M 56.808594 788.546875 " fill="rgb(89.1%, 93.3%, 41.3%)" fill-opacity="1" fill-rule="evenodd" stroke="rgb(57.4%, 59.6%, 8.1%)" stroke-linecap="butt" stroke-linejoin="round" stroke-miterlimit="10" stroke-opacity="1" stroke-width="0.4" transform="matrix(1, 0, 0, -1, -42, 790)"/>
 <path d="M 54.753906 789.082031 L 55.253906 788.234375 C 54.675781 789.214844 54.074219 787.058594 54.074219 783.996094 C 54.074219 780.9375 54.675781 778.78125 55.253906 779.761719 L 54.753906 778.914062 C 54.058594 777.738281 53.335938 780.324219 53.335938 783.996094 C 53.335938 787.671875 54.058594 790.257812 54.753906 789.082031 Z M 54.753906 789.082031 " fill="rgb(89.1%, 93.3%, 41.3%)" fill-opacity="1" fill-rule="evenodd" stroke="rgb(57.4%, 59.6%, 8.1%)" stroke-linecap="butt" stroke-linejoin="round" stroke-miterlimit="10" stroke-opacity="1" stroke-width="0.4" transform="matrix(1, 0, 0, -1, -42, 790)"/>
</svg>