<?xml version="1.0" encoding="utf-8"?>
<svg height="11" style="background-color:white" viewBox="0 0 10 11" width="10" xmlns="http://www.w3.org/2000/svg" xmlns:xlink="http://www.w3.org/1999/xlink">
 <path d="M 5 5 L 7.976562 10.058594 L 7.617188 10.269531 L 6.734375 8.773438 L 6.050781 9.511719 C 5.730469 9.859375 5.429688 10.125 5.34375 9.125 Z M 5 5 " fill="rgb(0%, 0%, 0%)" fill-opacity="1" fill-rule="evenodd"/>
 <path d="M 5.6875 1.160156 C 5.785156 0.773438 6.367188 0.925781 6.265625 1.3125 L 5.738281 3.34375 C 5.640625 3.730469 5.058594 3.582031 5.160156 3.195312 Z M 5.6875 1.160156 " fill="rgb(0%, 0%, 0%)" fill-opacity="1" fill-rule="evenodd"/>
 <path d="M 2.769531 1.800781 C 2.566406 1.457031 3.085938 1.152344 3.289062 1.496094 L 4.351562 3.308594 C 4.554688 3.652344 4.039062 3.957031 3.835938 3.609375 Z M 2.769531 1.800781 " fill="rgb(0%, 0%, 0%)" fill-opacity="1" fill-rule="evenodd"/>
 <path d="M 1.160156 4.3125 C 0.773438 4.214844 0.925781 3.632812 1.3125 3.734375 L 3.34375 4.261719 C 3.730469 4.359375 3.582031 4.941406 3.195312 4.839844 Z M 1.160156 4.3125 " fill="rgb(0%, 0%, 0%)" fill-opacity="1" fill-rule="evenodd"/>
 <path d="M 1.800781 7.230469 C 1.457031 7.433594 1.152344 6.914062 1.496094 6.710938 L 3.308594 5.648438 C 3.652344 5.445312 3.957031 5.960938 3.609375 6.164062 Z M 1.800781 7.230469 " fill="rgb(0%, 0%, 0%)" fill-opacity="1" fill-rule="evenodd"/>
 <path d="M 66.617188 778.730469 L 65.734375 780.226562 L 65.050781 779.488281 C 64.730469 779.140625 64.429688 778.875 64.34375 779.875 L 64 784 L 67.4375 781.691406 C 68.269531 781.132812 67.890625 781 67.433594 780.886719 L 66.453125 780.648438 L 67.332031 779.152344 Z M 66.617188 778.730469 " fill="none" stroke="rgb(0%, 0%, 0%)" stroke-linecap="round" stroke-linejoin="round" stroke-miterlimit="10" stroke-opacity="1" stroke-width="0.1" transform="matrix(1, 0, 0, -1, -59, 789)"/>
</svg>