<?xml version="1.0" encoding="utf-8"?>
<svg height="6" style="background-color:white" viewBox="0 0 6 6" width="6" xmlns="http://www.w3.org/2000/svg" xmlns:xlink="http://www.w3.org/1999/xlink">
 <path d="M 4.96875 2.988281 C 4.96875 0.359375 1.027344 0.359375 1.027344 2.988281 C 1.027344 5.617188 4.96875 5.617188 4.96875 2.988281 Z M 4.96875 2.988281 " fill="rgb(0%, 0%, 0%)" fill-opacity="1" fill-rule="evenodd"/>
 <path d="M 4.765625 2.988281 C 4.765625 0.628906 1.230469 0.628906 1.230469 2.988281 C 1.230469 5.347656 4.765625 5.347656 4.765625 2.988281 Z M 4.765625 2.988281 " fill="rgb(100%, 100%, 100%)" fill-opacity="1" fill-rule="evenodd"/>
 <path d="M 2.039062 2.039062 C 2.207031 1.867188 2.421875 1.742188 2.65625 1.683594 L 2.605469 1.488281 C 2.707031 1.464844 2.816406 1.445312 2.921875 1.441406 L 2.921875 1.222656 C 2.972656 1.21875 3.023438 1.21875 3.074219 1.222656 L 3.070312 1.441406 C 3.179688 1.445312 3.285156 1.460938 3.390625 1.488281 L 3.339844 1.683594 C 3.574219 1.742188 3.789062 1.867188 3.957031 2.039062 L 4.097656 1.898438 C 4.171875 1.976562 4.242188 2.058594 4.296875 2.148438 L 4.488281 2.039062 C 4.515625 2.082031 4.542969 2.125 4.566406 2.171875 L 4.375 2.28125 C 4.425781 2.375 4.464844 2.476562 4.492188 2.578125 L 4.300781 2.632812 C 4.363281 2.863281 4.363281 3.109375 4.300781 3.34375 L 4.492188 3.398438 C 4.460938 3.5 4.421875 3.601562 4.375 3.699219 L 4.589844 3.820312 C 4.566406 3.863281 4.542969 3.910156 4.515625 3.953125 L 4.296875 3.828125 C 4.242188 3.917969 4.171875 4 4.097656 4.078125 L 3.957031 3.9375 C 3.785156 4.109375 3.574219 4.230469 3.339844 4.292969 L 3.390625 4.484375 C 3.285156 4.511719 3.179688 4.527344 3.074219 4.535156 L 3.074219 4.785156 C 3.023438 4.785156 2.972656 4.785156 2.921875 4.785156 L 2.921875 4.535156 C 2.8125 4.527344 2.707031 4.511719 2.605469 4.484375 L 2.65625 4.292969 C 2.421875 4.230469 2.207031 4.109375 2.039062 3.9375 L 1.898438 4.074219 C 1.820312 4 1.753906 3.914062 1.695312 3.824219 L 1.507812 3.9375 C 1.480469 3.894531 1.453125 3.851562 1.429688 3.804688 L 1.621094 3.695312 C 1.574219 3.601562 1.535156 3.5 1.503906 3.398438 L 1.695312 3.34375 C 1.632812 3.109375 1.632812 2.863281 1.695312 2.632812 L 1.503906 2.578125 C 1.535156 2.472656 1.574219 2.371094 1.625 2.273438 L 1.429688 2.171875 C 1.453125 2.125 1.480469 2.082031 1.507812 2.039062 L 1.695312 2.148438 C 1.753906 2.058594 1.820312 1.976562 1.898438 1.898438 Z M 2.039062 2.039062 " fill="rgb(0%, 0%, 0%)" fill-opacity="1" fill-rule="evenodd"/>
 <path d="M 2.871094 2.425781 L 2.777344 1.828125 L 3.21875 1.828125 L 3.125 2.425781 C 3.238281 2.453125 3.34375 2.511719 3.421875 2.597656 L 3.890625 2.214844 L 4.113281 2.601562 L 3.554688 2.835938 C 3.582031 2.941406 3.582031 3.054688 3.546875 3.160156 L 4.113281 3.375 L 3.890625 3.761719 L 3.421875 3.378906 C 3.339844 3.464844 3.238281 3.523438 3.125 3.550781 L 3.21875 4.148438 L 2.777344 4.148438 L 2.851562 3.542969 C 2.753906 3.519531 2.660156 3.464844 2.589844 3.390625 L 2.105469 3.761719 L 1.882812 3.375 L 2.449219 3.160156 C 2.414062 3.054688 2.414062 2.941406 2.441406 2.835938 L 1.882812 2.597656 L 2.105469 2.214844 L 2.574219 2.597656 C 2.652344 2.511719 2.757812 2.449219 2.871094 2.425781 Z M 2.871094 2.425781 " fill="rgb(100%, 100%, 100%)" fill-opacity="1" fill-rule="evenodd"/>
</svg>