<?xml version="1.0" encoding="utf-8"?>
<svg height="13" style="background-color:white" viewBox="0 0 12 13" width="12" xmlns="http://www.w3.org/2000/svg" xmlns:xlink="http://www.w3.org/1999/xlink">
 <path d="M 9.609375 3.015625 C 11.476562 5.007812 11.726562 8.992188 9.859375 10.980469 C 7.992188 12.972656 4.007812 12.972656 2.140625 10.980469 C 0.273438 8.992188 0.523438 5.007812 2.390625 3.015625 C 4.257812 1.023438 7.742188 1.023438 9.609375 3.015625 Z M 9.609375 3.015625 " fill="rgb(0%, 0%, 0%)" fill-opacity="1" fill-rule="evenodd"/>
 <path d="M 2.183594 5.917969 C 2.308594 6.109375 2.789062 6.089844 2.90625 5.890625 C 3.019531 5.691406 2.769531 5.3125 2.53125 5.324219 C 2.289062 5.332031 2.058594 5.730469 2.183594 5.917969 Z M 2.183594 5.917969 " fill="rgb(100%, 100%, 100%)" fill-opacity="1" fill-rule="evenodd"/>
 <path d="M 3.335938 5.304688 C 3.410156 5.488281 3.769531 5.574219 3.875 5.429688 C 3.980469 5.285156 3.835938 4.917969 3.652344 4.875 C 3.472656 4.832031 3.261719 5.121094 3.335938 5.304688 Z M 3.335938 5.304688 " fill="rgb(100%, 100%, 100%)" fill-opacity="1" fill-rule="evenodd"/>
 <path d="M 2.929688 6.777344 C 3.003906 6.988281 3.484375 7.097656 3.648438 6.945312 C 3.816406 6.792969 3.667969 6.378906 3.425781 6.320312 C 3.1875 6.265625 2.855469 6.570312 2.929688 6.777344 Z M 2.929688 6.777344 " fill="rgb(100%, 100%, 100%)" fill-opacity="1" fill-rule="evenodd"/>
</svg>